<?xml version="1.0" encoding="utf-8" standalone="no"?>
<!DOCTYPE svg PUBLIC "-//W3C//DTD SVG 1.1//EN"
  "http://www.w3.org/Graphics/SVG/1.1/DTD/svg11.dtd">
<svg xmlns:xlink="http://www.w3.org/1999/xlink" width="527.277913pt" height="232.558294pt" viewBox="0 0 527.277913 232.558294" xmlns="http://www.w3.org/2000/svg" version="1.1">
 <metadata>
  <rdf:RDF xmlns:dc="http://purl.org/dc/elements/1.1/" xmlns:cc="http://creativecommons.org/ns#" xmlns:rdf="http://www.w3.org/1999/02/22-rdf-syntax-ns#">
   <cc:Work>
    <dc:type rdf:resource="http://purl.org/dc/dcmitype/StillImage"/>
    <dc:date>2026-10-03T09:18:30.456903</dc:date>
    <dc:format>image/svg+xml</dc:format>
    <dc:creator>
     <cc:Agent>
      <dc:title>Matplotlib v3.10.8, https://matplotlib.org/</dc:title>
     </cc:Agent>
    </dc:creator>
   </cc:Work>
  </rdf:RDF>
 </metadata>
 <defs>
  <style type="text/css">*{stroke-linejoin: round; stroke-linecap: butt}</style>
 </defs>
 <g id="figure_1">
  <g id="patch_1">
   <path d="M 0 232.558294 
L 527.277913 232.558294 
L 527.277913 0 
L 0 0 
z
" style="fill: #ffffff"/>
  </g>
  <g id="axes_1">
   <g id="patch_2">
    <path d="M 40.557913 197.905481 
L 249.04487 197.905481 
L 249.04487 24.241481 
L 40.557913 24.241481 
z
" style="fill: #ffffff"/>
   </g>
   <g id="matplotlib.axis_1">
    <g id="xtick_1">
     <g id="line2d_1">
      <defs>
       <path id="mc4e36cc0e4" d="M 0 0 
L 0 3.5 
" style="stroke: #000000; stroke-width: 0.8"/>
      </defs>
      <g>
       <use xlink:href="#mc4e36cc0e4" x="50.034593" y="197.905481" style="stroke: #000000; stroke-width: 0.8"/>
      </g>
     </g>
     <g id="text_1">
      <text style="font-size: 8px; font-family: 'DejaVu Sans'; text-anchor: middle" x="50.034593" y="210.984231" transform="rotate(-0 50.034593 210.984231)">0</text>
     </g>
    </g>
    <g id="xtick_2">
     <g id="line2d_2">
      <g>
       <use xlink:href="#mc4e36cc0e4" x="81.623526" y="197.905481" style="stroke: #000000; stroke-width: 0.8"/>
      </g>
     </g>
     <g id="text_2">
      <text style="font-size: 8px; font-family: 'DejaVu Sans'; text-anchor: middle" x="81.623526" y="210.984231" transform="rotate(-0 81.623526 210.984231)">10</text>
     </g>
    </g>
    <g id="xtick_3">
     <g id="line2d_3">
      <g>
       <use xlink:href="#mc4e36cc0e4" x="113.212458" y="197.905481" style="stroke: #000000; stroke-width: 0.8"/>
      </g>
     </g>
     <g id="text_3">
      <text style="font-size: 8px; font-family: 'DejaVu Sans'; text-anchor: middle" x="113.212458" y="210.984231" transform="rotate(-0 113.212458 210.984231)">20</text>
     </g>
    </g>
    <g id="xtick_4">
     <g id="line2d_4">
      <g>
       <use xlink:href="#mc4e36cc0e4" x="144.801391" y="197.905481" style="stroke: #000000; stroke-width: 0.8"/>
      </g>
     </g>
     <g id="text_4">
      <text style="font-size: 8px; font-family: 'DejaVu Sans'; text-anchor: middle" x="144.801391" y="210.984231" transform="rotate(-0 144.801391 210.984231)">30</text>
     </g>
    </g>
    <g id="xtick_5">
     <g id="line2d_5">
      <g>
       <use xlink:href="#mc4e36cc0e4" x="176.390324" y="197.905481" style="stroke: #000000; stroke-width: 0.8"/>
      </g>
     </g>
     <g id="text_5">
      <text style="font-size: 8px; font-family: 'DejaVu Sans'; text-anchor: middle" x="176.390324" y="210.984231" transform="rotate(-0 176.390324 210.984231)">40</text>
     </g>
    </g>
    <g id="xtick_6">
     <g id="line2d_6">
      <g>
       <use xlink:href="#mc4e36cc0e4" x="207.979257" y="197.905481" style="stroke: #000000; stroke-width: 0.8"/>
      </g>
     </g>
     <g id="text_6">
      <text style="font-size: 8px; font-family: 'DejaVu Sans'; text-anchor: middle" x="207.979257" y="210.984231" transform="rotate(-0 207.979257 210.984231)">50</text>
     </g>
    </g>
    <g id="xtick_7">
     <g id="line2d_7">
      <g>
       <use xlink:href="#mc4e36cc0e4" x="239.56819" y="197.905481" style="stroke: #000000; stroke-width: 0.8"/>
      </g>
     </g>
     <g id="text_7">
      <text style="font-size: 8px; font-family: 'DejaVu Sans'; text-anchor: middle" x="239.56819" y="210.984231" transform="rotate(-0 239.56819 210.984231)">60</text>
     </g>
    </g>
    <g id="text_8">
     <text style="font-size: 9px; font-family: 'DejaVu Sans'; text-anchor: middle" x="144.801391" y="223.486575" transform="rotate(-0 144.801391 223.486575)">Concentration (nM)</text>
    </g>
   </g>
   <g id="matplotlib.axis_2">
    <g id="ytick_1">
     <g id="line2d_8">
      <path d="M 40.557913 190.011663 
L 249.04487 190.011663 
" clip-path="url(#p0fc0fe6254)" style="fill: none; stroke: #d9d9d9; stroke-opacity: 0.7; stroke-width: 0.55; stroke-linecap: square"/>
     </g>
     <g id="line2d_9">
      <defs>
       <path id="m652ebc6580" d="M 0 0 
L -3.5 0 
" style="stroke: #000000; stroke-width: 0.8"/>
      </defs>
      <g>
       <use xlink:href="#m652ebc6580" x="40.557913" y="190.011663" style="stroke: #000000; stroke-width: 0.8"/>
      </g>
     </g>
     <g id="text_9">
      <text style="font-size: 8px; font-family: 'DejaVu Sans'; text-anchor: end" x="33.557913" y="193.051038" transform="rotate(-0 33.557913 193.051038)">0</text>
     </g>
    </g>
    <g id="ytick_2">
     <g id="line2d_10">
      <path d="M 40.557913 159.997145 
L 249.04487 159.997145 
" clip-path="url(#p0fc0fe6254)" style="fill: none; stroke: #d9d9d9; stroke-opacity: 0.7; stroke-width: 0.55; stroke-linecap: square"/>
     </g>
     <g id="line2d_11">
      <g>
       <use xlink:href="#m652ebc6580" x="40.557913" y="159.997145" style="stroke: #000000; stroke-width: 0.8"/>
      </g>
     </g>
     <g id="text_10">
      <text style="font-size: 8px; font-family: 'DejaVu Sans'; text-anchor: end" x="33.557913" y="163.03652" transform="rotate(-0 33.557913 163.03652)">5</text>
     </g>
    </g>
    <g id="ytick_3">
     <g id="line2d_12">
      <path d="M 40.557913 129.982627 
L 249.04487 129.982627 
" clip-path="url(#p0fc0fe6254)" style="fill: none; stroke: #d9d9d9; stroke-opacity: 0.7; stroke-width: 0.55; stroke-linecap: square"/>
     </g>
     <g id="line2d_13">
      <g>
       <use xlink:href="#m652ebc6580" x="40.557913" y="129.982627" style="stroke: #000000; stroke-width: 0.8"/>
      </g>
     </g>
     <g id="text_11">
      <text style="font-size: 8px; font-family: 'DejaVu Sans'; text-anchor: end" x="33.557913" y="133.022002" transform="rotate(-0 33.557913 133.022002)">10</text>
     </g>
    </g>
    <g id="ytick_4">
     <g id="line2d_14">
      <path d="M 40.557913 99.96811 
L 249.04487 99.96811 
" clip-path="url(#p0fc0fe6254)" style="fill: none; stroke: #d9d9d9; stroke-opacity: 0.7; stroke-width: 0.55; stroke-linecap: square"/>
     </g>
     <g id="line2d_15">
      <g>
       <use xlink:href="#m652ebc6580" x="40.557913" y="99.96811" style="stroke: #000000; stroke-width: 0.8"/>
      </g>
     </g>
     <g id="text_12">
      <text style="font-size: 8px; font-family: 'DejaVu Sans'; text-anchor: end" x="33.557913" y="103.007485" transform="rotate(-0 33.557913 103.007485)">15</text>
     </g>
    </g>
    <g id="ytick_5">
     <g id="line2d_16">
      <path d="M 40.557913 69.953592 
L 249.04487 69.953592 
" clip-path="url(#p0fc0fe6254)" style="fill: none; stroke: #d9d9d9; stroke-opacity: 0.7; stroke-width: 0.55; stroke-linecap: square"/>
     </g>
     <g id="line2d_17">
      <g>
       <use xlink:href="#m652ebc6580" x="40.557913" y="69.953592" style="stroke: #000000; stroke-width: 0.8"/>
      </g>
     </g>
     <g id="text_13">
      <text style="font-size: 8px; font-family: 'DejaVu Sans'; text-anchor: end" x="33.557913" y="72.992967" transform="rotate(-0 33.557913 72.992967)">20</text>
     </g>
    </g>
    <g id="ytick_6">
     <g id="line2d_18">
      <path d="M 40.557913 39.939074 
L 249.04487 39.939074 
" clip-path="url(#p0fc0fe6254)" style="fill: none; stroke: #d9d9d9; stroke-opacity: 0.7; stroke-width: 0.55; stroke-linecap: square"/>
     </g>
     <g id="line2d_19">
      <g>
       <use xlink:href="#m652ebc6580" x="40.557913" y="39.939074" style="stroke: #000000; stroke-width: 0.8"/>
      </g>
     </g>
     <g id="text_14">
      <text style="font-size: 8px; font-family: 'DejaVu Sans'; text-anchor: end" x="33.557913" y="42.978449" transform="rotate(-0 33.557913 42.978449)">25</text>
     </g>
    </g>
    <g id="text_15">
     <text style="font-size: 9px; font-family: 'DejaVu Sans'; text-anchor: middle" x="17.506194" y="111.073481" transform="rotate(-90 17.506194 111.073481)">Firing rate (Hz)</text>
    </g>
   </g>
   <g id="FillBetweenPolyCollection_1">
    <defs>
     <path id="md5523a55d6" d="M 50.034593 -110.229368 
L 50.034593 -105.697176 
L 57.931826 -103.925569 
L 65.829059 -100.954132 
L 73.726292 -73.730964 
L 81.623526 -45.007821 
L 89.520759 -42.666689 
L 97.417992 -42.546631 
L 113.212458 -42.546631 
L 144.801391 -42.546631 
L 239.56819 -42.546631 
L 239.56819 -44.887763 
L 239.56819 -44.887763 
L 144.801391 -45.668141 
L 113.212458 -45.848228 
L 97.417992 -46.118358 
L 89.520759 -57.703962 
L 81.623526 -62.20689 
L 73.726292 -95.282138 
L 65.829059 -105.156915 
L 57.931826 -108.369219 
L 50.034593 -110.229368 
z
"/>
    </defs>
    <g clip-path="url(#p0fc0fe6254)">
     <use xlink:href="#md5523a55d6" x="0" y="232.558294" style="fill: #0072b2; fill-opacity: 0.13"/>
    </g>
   </g>
   <g id="FillBetweenPolyCollection_2">
    <defs>
     <path id="meafe87e63f" d="M 50.034593 -192.829321 
L 50.034593 -187.30665 
L 57.931826 -186.345435 
L 65.829059 -185.475764 
L 73.726292 -184.785431 
L 81.623526 -184.693136 
L 89.520759 -184.545314 
L 97.417992 -184.364477 
L 113.212458 -182.953044 
L 144.801391 -181.543863 
L 239.56819 -177.732019 
L 239.56819 -182.744443 
L 239.56819 -182.744443 
L 144.801391 -186.346936 
L 113.212458 -188.23785 
L 97.417992 -189.168301 
L 89.520759 -189.258344 
L 81.623526 -189.407666 
L 73.726292 -189.587753 
L 65.829059 -190.548218 
L 57.931826 -191.658755 
L 50.034593 -192.829321 
z
"/>
    </defs>
    <g clip-path="url(#p0fc0fe6254)">
     <use xlink:href="#meafe87e63f" x="0" y="232.558294" style="fill: #d55e00; fill-opacity: 0.13"/>
    </g>
   </g>
   <g id="FillBetweenPolyCollection_3">
    <defs>
     <path id="mf550702fe4" d="M 50.034593 -200.422994 
L 50.034593 -171.277397 
L 57.931826 -171.338176 
L 65.829059 -170.527034 
L 73.726292 -135.28924 
L 81.623526 -91.020077 
L 89.520759 -83.424903 
L 97.417992 -79.913955 
L 113.212458 -79.162842 
L 144.801391 -72.351047 
L 239.56819 -68.899377 
L 239.56819 -88.110169 
L 239.56819 -88.110169 
L 144.801391 -91.801205 
L 113.212458 -98.94466 
L 97.417992 -98.643764 
L 89.520759 -112.753589 
L 81.623526 -130.129744 
L 73.726292 -181.694686 
L 65.829059 -198.385009 
L 57.931826 -199.494795 
L 50.034593 -200.422994 
z
"/>
    </defs>
    <g clip-path="url(#p0fc0fe6254)">
     <use xlink:href="#mf550702fe4" x="0" y="232.558294" style="fill: #009e73; fill-opacity: 0.13"/>
    </g>
   </g>
   <g id="line2d_20">
    <path d="M 50.034593 124.189826 
L 57.931826 126.08074 
L 65.829059 129.262279 
L 73.726292 147.301004 
L 81.623526 180.22693 
L 89.520759 183.168353 
L 97.417992 188.781068 
L 113.212458 188.871111 
L 144.801391 188.93114 
L 239.56819 189.201271 
" clip-path="url(#p0fc0fe6254)" style="fill: none; stroke: #0072b2; stroke-width: 1.5; stroke-linecap: square"/>
    <defs>
     <path id="m5cbf97aace" d="M 0 2.1 
C 0.556927 2.1 1.091118 1.878731 1.484924 1.484924 
C 1.878731 1.091118 2.1 0.556927 2.1 0 
C 2.1 -0.556927 1.878731 -1.091118 1.484924 -1.484924 
C 1.091118 -1.878731 0.556927 -2.1 0 -2.1 
C -0.556927 -2.1 -1.091118 -1.878731 -1.484924 -1.484924 
C -1.878731 -1.091118 -2.1 -0.556927 -2.1 0 
C -2.1 0.556927 -1.878731 1.091118 -1.484924 1.484924 
C -1.091118 1.878731 -0.556927 2.1 0 2.1 
z
" style="stroke: #0072b2"/>
    </defs>
    <g clip-path="url(#p0fc0fe6254)">
     <use xlink:href="#m5cbf97aace" x="50.034593" y="124.189826" style="fill: #0072b2; stroke: #0072b2"/>
     <use xlink:href="#m5cbf97aace" x="57.931826" y="126.08074" style="fill: #0072b2; stroke: #0072b2"/>
     <use xlink:href="#m5cbf97aace" x="65.829059" y="129.262279" style="fill: #0072b2; stroke: #0072b2"/>
     <use xlink:href="#m5cbf97aace" x="73.726292" y="147.301004" style="fill: #0072b2; stroke: #0072b2"/>
     <use xlink:href="#m5cbf97aace" x="81.623526" y="180.22693" style="fill: #0072b2; stroke: #0072b2"/>
     <use xlink:href="#m5cbf97aace" x="89.520759" y="183.168353" style="fill: #0072b2; stroke: #0072b2"/>
     <use xlink:href="#m5cbf97aace" x="97.417992" y="188.781068" style="fill: #0072b2; stroke: #0072b2"/>
     <use xlink:href="#m5cbf97aace" x="113.212458" y="188.871111" style="fill: #0072b2; stroke: #0072b2"/>
     <use xlink:href="#m5cbf97aace" x="144.801391" y="188.93114" style="fill: #0072b2; stroke: #0072b2"/>
     <use xlink:href="#m5cbf97aace" x="239.56819" y="189.201271" style="fill: #0072b2; stroke: #0072b2"/>
    </g>
   </g>
   <g id="line2d_21">
    <path d="M 50.034593 42.310221 
L 57.931826 43.450773 
L 65.829059 44.471266 
L 73.726292 45.221629 
L 81.623526 45.341687 
L 89.520759 45.521774 
L 97.417992 45.761891 
L 113.212458 46.872428 
L 144.801391 48.433183 
L 239.56819 52.215012 
" clip-path="url(#p0fc0fe6254)" style="fill: none; stroke-dasharray: 5.55,2.4; stroke-dashoffset: 0; stroke: #d55e00; stroke-width: 1.5"/>
    <defs>
     <path id="m360902b889" d="M -2.1 2.1 
L 2.1 2.1 
L 2.1 -2.1 
L -2.1 -2.1 
z
" style="stroke: #d55e00; stroke-linejoin: miter"/>
    </defs>
    <g clip-path="url(#p0fc0fe6254)">
     <use xlink:href="#m360902b889" x="50.034593" y="42.310221" style="fill: #d55e00; stroke: #d55e00; stroke-linejoin: miter"/>
     <use xlink:href="#m360902b889" x="57.931826" y="43.450773" style="fill: #d55e00; stroke: #d55e00; stroke-linejoin: miter"/>
     <use xlink:href="#m360902b889" x="65.829059" y="44.471266" style="fill: #d55e00; stroke: #d55e00; stroke-linejoin: miter"/>
     <use xlink:href="#m360902b889" x="73.726292" y="45.221629" style="fill: #d55e00; stroke: #d55e00; stroke-linejoin: miter"/>
     <use xlink:href="#m360902b889" x="81.623526" y="45.341687" style="fill: #d55e00; stroke: #d55e00; stroke-linejoin: miter"/>
     <use xlink:href="#m360902b889" x="89.520759" y="45.521774" style="fill: #d55e00; stroke: #d55e00; stroke-linejoin: miter"/>
     <use xlink:href="#m360902b889" x="97.417992" y="45.761891" style="fill: #d55e00; stroke: #d55e00; stroke-linejoin: miter"/>
     <use xlink:href="#m360902b889" x="113.212458" y="46.872428" style="fill: #d55e00; stroke: #d55e00; stroke-linejoin: miter"/>
     <use xlink:href="#m360902b889" x="144.801391" y="48.433183" style="fill: #d55e00; stroke: #d55e00; stroke-linejoin: miter"/>
     <use xlink:href="#m360902b889" x="239.56819" y="52.215012" style="fill: #d55e00; stroke: #d55e00; stroke-linejoin: miter"/>
    </g>
   </g>
   <g id="line2d_22">
    <path d="M 50.034593 48.313125 
L 57.931826 48.553241 
L 65.829059 49.333618 
L 73.726292 73.615363 
L 81.623526 124.369913 
L 89.520759 135.295197 
L 97.417992 143.399117 
L 113.212458 143.699262 
L 144.801391 151.082833 
L 239.56819 154.804634 
" clip-path="url(#p0fc0fe6254)" style="fill: none; stroke-dasharray: 9.6,2.4,1.5,2.4; stroke-dashoffset: 0; stroke: #009e73; stroke-width: 1.5"/>
    <defs>
     <path id="m0060620f63" d="M 0 -2.1 
L -2.1 2.1 
L 2.1 2.1 
z
" style="stroke: #009e73; stroke-linejoin: miter"/>
    </defs>
    <g clip-path="url(#p0fc0fe6254)">
     <use xlink:href="#m0060620f63" x="50.034593" y="48.313125" style="fill: #009e73; stroke: #009e73; stroke-linejoin: miter"/>
     <use xlink:href="#m0060620f63" x="57.931826" y="48.553241" style="fill: #009e73; stroke: #009e73; stroke-linejoin: miter"/>
     <use xlink:href="#m0060620f63" x="65.829059" y="49.333618" style="fill: #009e73; stroke: #009e73; stroke-linejoin: miter"/>
     <use xlink:href="#m0060620f63" x="73.726292" y="73.615363" style="fill: #009e73; stroke: #009e73; stroke-linejoin: miter"/>
     <use xlink:href="#m0060620f63" x="81.623526" y="124.369913" style="fill: #009e73; stroke: #009e73; stroke-linejoin: miter"/>
     <use xlink:href="#m0060620f63" x="89.520759" y="135.295197" style="fill: #009e73; stroke: #009e73; stroke-linejoin: miter"/>
     <use xlink:href="#m0060620f63" x="97.417992" y="143.399117" style="fill: #009e73; stroke: #009e73; stroke-linejoin: miter"/>
     <use xlink:href="#m0060620f63" x="113.212458" y="143.699262" style="fill: #009e73; stroke: #009e73; stroke-linejoin: miter"/>
     <use xlink:href="#m0060620f63" x="144.801391" y="151.082833" style="fill: #009e73; stroke: #009e73; stroke-linejoin: miter"/>
     <use xlink:href="#m0060620f63" x="239.56819" y="154.804634" style="fill: #009e73; stroke: #009e73; stroke-linejoin: miter"/>
    </g>
   </g>
   <g id="patch_3">
    <path d="M 40.557913 197.905481 
L 40.557913 24.241481 
" style="fill: none; stroke: #000000; stroke-width: 0.8; stroke-linejoin: miter; stroke-linecap: square"/>
   </g>
   <g id="patch_4">
    <path d="M 40.557913 197.905481 
L 249.04487 197.905481 
" style="fill: none; stroke: #000000; stroke-width: 0.8; stroke-linejoin: miter; stroke-linecap: square"/>
   </g>
   <g id="text_16">
    <text style="font-weight: 700; font-size: 11px; font-family: 'DejaVu Sans'; text-anchor: start" x="7.2" y="15.558281" transform="rotate(-0 7.2 15.558281)">A</text>
   </g>
   <g id="legend_1">
    <g id="line2d_23">
     <path d="M 167.04112 34.720231 
L 175.04112 34.720231 
L 183.04112 34.720231 
" style="fill: none; stroke: #0072b2; stroke-width: 1.5; stroke-linecap: square"/>
     <g>
      <use xlink:href="#m5cbf97aace" x="175.04112" y="34.720231" style="fill: #0072b2; stroke: #0072b2"/>
     </g>
    </g>
    <g id="text_17">
     <text style="font-size: 8px; font-family: 'DejaVu Sans'; text-anchor: start" x="189.44112" y="37.520231" transform="rotate(-0 189.44112 37.520231)">Healthy</text>
    </g>
    <g id="line2d_24">
     <path d="M 167.04112 46.462731 
L 175.04112 46.462731 
L 183.04112 46.462731 
" style="fill: none; stroke-dasharray: 5.55,2.4; stroke-dashoffset: 0; stroke: #d55e00; stroke-width: 1.5"/>
     <g>
      <use xlink:href="#m360902b889" x="175.04112" y="46.462731" style="fill: #d55e00; stroke: #d55e00; stroke-linejoin: miter"/>
     </g>
    </g>
    <g id="text_18">
     <text style="font-size: 8px; font-family: 'DejaVu Sans'; text-anchor: start" x="189.44112" y="49.262731" transform="rotate(-0 189.44112 49.262731)">Input-driven</text>
    </g>
    <g id="line2d_25">
     <path d="M 167.04112 58.205231 
L 175.04112 58.205231 
L 183.04112 58.205231 
" style="fill: none; stroke-dasharray: 9.6,2.4,1.5,2.4; stroke-dashoffset: 0; stroke: #009e73; stroke-width: 1.5"/>
     <g>
      <use xlink:href="#m0060620f63" x="175.04112" y="58.205231" style="fill: #009e73; stroke: #009e73; stroke-linejoin: miter"/>
     </g>
    </g>
    <g id="text_19">
     <text style="font-size: 8px; font-family: 'DejaVu Sans'; text-anchor: start" x="189.44112" y="61.005231" transform="rotate(-0 189.44112 61.005231)">NMDA-driven</text>
    </g>
   </g>
  </g>
  <g id="axes_2">
   <g id="patch_5">
    <path d="M 311.590957 197.905481 
L 520.077913 197.905481 
L 520.077913 24.241481 
L 311.590957 24.241481 
z
" style="fill: #ffffff"/>
   </g>
   <g id="matplotlib.axis_3">
    <g id="xtick_8">
     <g id="line2d_26">
      <g>
       <use xlink:href="#mc4e36cc0e4" x="321.067636" y="197.905481" style="stroke: #000000; stroke-width: 0.8"/>
      </g>
     </g>
     <g id="text_20">
      <text style="font-size: 8px; font-family: 'DejaVu Sans'; text-anchor: middle" x="321.067636" y="210.984231" transform="rotate(-0 321.067636 210.984231)">0</text>
     </g>
    </g>
    <g id="xtick_9">
     <g id="line2d_27">
      <g>
       <use xlink:href="#mc4e36cc0e4" x="352.656569" y="197.905481" style="stroke: #000000; stroke-width: 0.8"/>
      </g>
     </g>
     <g id="text_21">
      <text style="font-size: 8px; font-family: 'DejaVu Sans'; text-anchor: middle" x="352.656569" y="210.984231" transform="rotate(-0 352.656569 210.984231)">10</text>
     </g>
    </g>
    <g id="xtick_10">
     <g id="line2d_28">
      <g>
       <use xlink:href="#mc4e36cc0e4" x="384.245502" y="197.905481" style="stroke: #000000; stroke-width: 0.8"/>
      </g>
     </g>
     <g id="text_22">
      <text style="font-size: 8px; font-family: 'DejaVu Sans'; text-anchor: middle" x="384.245502" y="210.984231" transform="rotate(-0 384.245502 210.984231)">20</text>
     </g>
    </g>
    <g id="xtick_11">
     <g id="line2d_29">
      <g>
       <use xlink:href="#mc4e36cc0e4" x="415.834435" y="197.905481" style="stroke: #000000; stroke-width: 0.8"/>
      </g>
     </g>
     <g id="text_23">
      <text style="font-size: 8px; font-family: 'DejaVu Sans'; text-anchor: middle" x="415.834435" y="210.984231" transform="rotate(-0 415.834435 210.984231)">30</text>
     </g>
    </g>
    <g id="xtick_12">
     <g id="line2d_30">
      <g>
       <use xlink:href="#mc4e36cc0e4" x="447.423368" y="197.905481" style="stroke: #000000; stroke-width: 0.8"/>
      </g>
     </g>
     <g id="text_24">
      <text style="font-size: 8px; font-family: 'DejaVu Sans'; text-anchor: middle" x="447.423368" y="210.984231" transform="rotate(-0 447.423368 210.984231)">40</text>
     </g>
    </g>
    <g id="xtick_13">
     <g id="line2d_31">
      <g>
       <use xlink:href="#mc4e36cc0e4" x="479.0123" y="197.905481" style="stroke: #000000; stroke-width: 0.8"/>
      </g>
     </g>
     <g id="text_25">
      <text style="font-size: 8px; font-family: 'DejaVu Sans'; text-anchor: middle" x="479.0123" y="210.984231" transform="rotate(-0 479.0123 210.984231)">50</text>
     </g>
    </g>
    <g id="xtick_14">
     <g id="line2d_32">
      <g>
       <use xlink:href="#mc4e36cc0e4" x="510.601233" y="197.905481" style="stroke: #000000; stroke-width: 0.8"/>
      </g>
     </g>
     <g id="text_26">
      <text style="font-size: 8px; font-family: 'DejaVu Sans'; text-anchor: middle" x="510.601233" y="210.984231" transform="rotate(-0 510.601233 210.984231)">60</text>
     </g>
    </g>
    <g id="text_27">
     <text style="font-size: 9px; font-family: 'DejaVu Sans'; text-anchor: middle" x="415.834435" y="223.486575" transform="rotate(-0 415.834435 223.486575)">Concentration (nM)</text>
    </g>
   </g>
   <g id="matplotlib.axis_4">
    <g id="ytick_7">
     <g id="line2d_33">
      <path d="M 311.590957 193.081481 
L 520.077913 193.081481 
" clip-path="url(#p703cf9abb3)" style="fill: none; stroke: #d9d9d9; stroke-opacity: 0.7; stroke-width: 0.55; stroke-linecap: square"/>
     </g>
     <g id="line2d_34">
      <g>
       <use xlink:href="#m652ebc6580" x="311.590957" y="193.081481" style="stroke: #000000; stroke-width: 0.8"/>
      </g>
     </g>
     <g id="text_28">
      <text style="font-size: 8px; font-family: 'DejaVu Sans'; text-anchor: end" x="304.590957" y="196.120856" transform="rotate(-0 304.590957 196.120856)">0</text>
     </g>
    </g>
    <g id="ytick_8">
     <g id="line2d_35">
      <path d="M 311.590957 160.921481 
L 520.077913 160.921481 
" clip-path="url(#p703cf9abb3)" style="fill: none; stroke: #d9d9d9; stroke-opacity: 0.7; stroke-width: 0.55; stroke-linecap: square"/>
     </g>
     <g id="line2d_36">
      <g>
       <use xlink:href="#m652ebc6580" x="311.590957" y="160.921481" style="stroke: #000000; stroke-width: 0.8"/>
      </g>
     </g>
     <g id="text_29">
      <text style="font-size: 8px; font-family: 'DejaVu Sans'; text-anchor: end" x="304.590957" y="163.960856" transform="rotate(-0 304.590957 163.960856)">20</text>
     </g>
    </g>
    <g id="ytick_9">
     <g id="line2d_37">
      <path d="M 311.590957 128.761481 
L 520.077913 128.761481 
" clip-path="url(#p703cf9abb3)" style="fill: none; stroke: #d9d9d9; stroke-opacity: 0.7; stroke-width: 0.55; stroke-linecap: square"/>
     </g>
     <g id="line2d_38">
      <g>
       <use xlink:href="#m652ebc6580" x="311.590957" y="128.761481" style="stroke: #000000; stroke-width: 0.8"/>
      </g>
     </g>
     <g id="text_30">
      <text style="font-size: 8px; font-family: 'DejaVu Sans'; text-anchor: end" x="304.590957" y="131.800856" transform="rotate(-0 304.590957 131.800856)">40</text>
     </g>
    </g>
    <g id="ytick_10">
     <g id="line2d_39">
      <path d="M 311.590957 96.601481 
L 520.077913 96.601481 
" clip-path="url(#p703cf9abb3)" style="fill: none; stroke: #d9d9d9; stroke-opacity: 0.7; stroke-width: 0.55; stroke-linecap: square"/>
     </g>
     <g id="line2d_40">
      <g>
       <use xlink:href="#m652ebc6580" x="311.590957" y="96.601481" style="stroke: #000000; stroke-width: 0.8"/>
      </g>
     </g>
     <g id="text_31">
      <text style="font-size: 8px; font-family: 'DejaVu Sans'; text-anchor: end" x="304.590957" y="99.640856" transform="rotate(-0 304.590957 99.640856)">60</text>
     </g>
    </g>
    <g id="ytick_11">
     <g id="line2d_41">
      <path d="M 311.590957 64.441481 
L 520.077913 64.441481 
" clip-path="url(#p703cf9abb3)" style="fill: none; stroke: #d9d9d9; stroke-opacity: 0.7; stroke-width: 0.55; stroke-linecap: square"/>
     </g>
     <g id="line2d_42">
      <g>
       <use xlink:href="#m652ebc6580" x="311.590957" y="64.441481" style="stroke: #000000; stroke-width: 0.8"/>
      </g>
     </g>
     <g id="text_32">
      <text style="font-size: 8px; font-family: 'DejaVu Sans'; text-anchor: end" x="304.590957" y="67.480856" transform="rotate(-0 304.590957 67.480856)">80</text>
     </g>
    </g>
    <g id="ytick_12">
     <g id="line2d_43">
      <path d="M 311.590957 32.281481 
L 520.077913 32.281481 
" clip-path="url(#p703cf9abb3)" style="fill: none; stroke: #d9d9d9; stroke-opacity: 0.7; stroke-width: 0.55; stroke-linecap: square"/>
     </g>
     <g id="line2d_44">
      <g>
       <use xlink:href="#m652ebc6580" x="311.590957" y="32.281481" style="stroke: #000000; stroke-width: 0.8"/>
      </g>
     </g>
     <g id="text_33">
      <text style="font-size: 8px; font-family: 'DejaVu Sans'; text-anchor: end" x="304.590957" y="35.320856" transform="rotate(-0 304.590957 35.320856)">100</text>
     </g>
    </g>
    <g id="text_34">
     <text style="font-size: 9px; font-family: 'DejaVu Sans'; text-anchor: middle" x="283.449238" y="111.073481" transform="rotate(-90 283.449238 111.073481)">Within-state firing suppression (%)</text>
    </g>
   </g>
   <g id="LineCollection_1">
    <path d="M 321.067636 193.081481 
L 321.067636 193.081481 
" clip-path="url(#p703cf9abb3)" style="fill: none; stroke: #0072b2; stroke-width: 0.8"/>
    <path d="M 328.96487 189.607206 
L 328.96487 187.252299 
" clip-path="url(#p703cf9abb3)" style="fill: none; stroke: #0072b2; stroke-width: 0.8"/>
    <path d="M 336.862103 182.061622 
L 336.862103 179.540203 
" clip-path="url(#p703cf9abb3)" style="fill: none; stroke: #0072b2; stroke-width: 0.8"/>
    <path d="M 344.759336 163.103701 
L 344.759336 109.098686 
" clip-path="url(#p703cf9abb3)" style="fill: none; stroke: #0072b2; stroke-width: 0.8"/>
    <path d="M 352.656569 80.035483 
L 352.656569 35.962178 
" clip-path="url(#p703cf9abb3)" style="fill: none; stroke: #0072b2; stroke-width: 0.8"/>
    <path d="M 360.553802 68.845891 
L 360.553802 32.817481 
" clip-path="url(#p703cf9abb3)" style="fill: none; stroke: #0072b2; stroke-width: 0.8"/>
    <path d="M 368.451036 41.005004 
L 368.451036 32.281481 
" clip-path="url(#p703cf9abb3)" style="fill: none; stroke: #0072b2; stroke-width: 0.8"/>
    <path d="M 384.245502 40.341151 
L 384.245502 32.281481 
" clip-path="url(#p703cf9abb3)" style="fill: none; stroke: #0072b2; stroke-width: 0.8"/>
    <path d="M 415.834435 39.898582 
L 415.834435 32.281481 
" clip-path="url(#p703cf9abb3)" style="fill: none; stroke: #0072b2; stroke-width: 0.8"/>
    <path d="M 510.601233 37.994307 
L 510.601233 32.281481 
" clip-path="url(#p703cf9abb3)" style="fill: none; stroke: #0072b2; stroke-width: 0.8"/>
   </g>
   <g id="line2d_45">
    <defs>
     <path id="m36c586abc9" d="M 2.3 0 
L -2.3 -0 
" style="stroke: #0072b2"/>
    </defs>
    <g clip-path="url(#p703cf9abb3)">
     <use xlink:href="#m36c586abc9" x="321.067636" y="193.081481" style="fill: #0072b2; stroke: #0072b2"/>
     <use xlink:href="#m36c586abc9" x="328.96487" y="189.607206" style="fill: #0072b2; stroke: #0072b2"/>
     <use xlink:href="#m36c586abc9" x="336.862103" y="182.061622" style="fill: #0072b2; stroke: #0072b2"/>
     <use xlink:href="#m36c586abc9" x="344.759336" y="163.103701" style="fill: #0072b2; stroke: #0072b2"/>
     <use xlink:href="#m36c586abc9" x="352.656569" y="80.035483" style="fill: #0072b2; stroke: #0072b2"/>
     <use xlink:href="#m36c586abc9" x="360.553802" y="68.845891" style="fill: #0072b2; stroke: #0072b2"/>
     <use xlink:href="#m36c586abc9" x="368.451036" y="41.005004" style="fill: #0072b2; stroke: #0072b2"/>
     <use xlink:href="#m36c586abc9" x="384.245502" y="40.341151" style="fill: #0072b2; stroke: #0072b2"/>
     <use xlink:href="#m36c586abc9" x="415.834435" y="39.898582" style="fill: #0072b2; stroke: #0072b2"/>
     <use xlink:href="#m36c586abc9" x="510.601233" y="37.994307" style="fill: #0072b2; stroke: #0072b2"/>
    </g>
   </g>
   <g id="line2d_46">
    <g clip-path="url(#p703cf9abb3)">
     <use xlink:href="#m36c586abc9" x="321.067636" y="193.081481" style="fill: #0072b2; stroke: #0072b2"/>
     <use xlink:href="#m36c586abc9" x="328.96487" y="187.252299" style="fill: #0072b2; stroke: #0072b2"/>
     <use xlink:href="#m36c586abc9" x="336.862103" y="179.540203" style="fill: #0072b2; stroke: #0072b2"/>
     <use xlink:href="#m36c586abc9" x="344.759336" y="109.098686" style="fill: #0072b2; stroke: #0072b2"/>
     <use xlink:href="#m36c586abc9" x="352.656569" y="35.962178" style="fill: #0072b2; stroke: #0072b2"/>
     <use xlink:href="#m36c586abc9" x="360.553802" y="32.817481" style="fill: #0072b2; stroke: #0072b2"/>
     <use xlink:href="#m36c586abc9" x="368.451036" y="32.281481" style="fill: #0072b2; stroke: #0072b2"/>
     <use xlink:href="#m36c586abc9" x="384.245502" y="32.281481" style="fill: #0072b2; stroke: #0072b2"/>
     <use xlink:href="#m36c586abc9" x="415.834435" y="32.281481" style="fill: #0072b2; stroke: #0072b2"/>
     <use xlink:href="#m36c586abc9" x="510.601233" y="32.281481" style="fill: #0072b2; stroke: #0072b2"/>
    </g>
   </g>
   <g id="line2d_47">
    <path d="M 322.647083 188.731996 
L 331.263892 188.641371 
L 332.879544 188.436129 
L 333.956645 188.135713 
L 335.033746 187.597986 
L 336.110847 186.681671 
L 337.187948 185.189062 
L 337.726499 184.147854 
L 338.8036 181.286111 
L 339.880701 177.105557 
L 340.957803 171.27916 
L 342.034904 163.564815 
L 343.112005 153.907677 
L 344.727657 136.340016 
L 348.497511 92.171739 
L 349.574612 81.65552 
L 350.651713 72.68218 
L 351.728814 65.242256 
L 352.805915 59.202538 
L 353.883016 54.370995 
L 354.960117 50.542642 
L 356.037219 47.525993 
L 357.11432 45.155017 
L 358.191421 43.292169 
L 359.268522 41.826734 
L 360.345623 40.671197 
L 361.422724 39.757155 
L 363.038376 38.726044 
L 364.654028 37.99006 
L 366.80823 37.317372 
L 369.500983 36.790183 
L 372.732286 36.422628 
L 377.579242 36.144371 
L 385.11895 35.976941 
L 401.275467 35.896388 
L 483.673705 35.880696 
L 510.601233 35.880659 
L 510.601233 35.880659 
" clip-path="url(#p703cf9abb3)" style="fill: none; stroke: #0072b2; stroke-opacity: 0.85; stroke-width: 1.15; stroke-linecap: square"/>
   </g>
   <g id="line2d_48">
    <path d="M 346.719707 197.905481 
L 346.719707 24.241481 
" clip-path="url(#p703cf9abb3)" style="fill: none; stroke-dasharray: 0.75,1.2375; stroke-dashoffset: 0; stroke: #0072b2; stroke-opacity: 0.55; stroke-width: 0.75"/>
   </g>
   <g id="LineCollection_2">
    <path d="M 321.067636 193.081481 
L 321.067636 193.081481 
" clip-path="url(#p703cf9abb3)" style="fill: none; stroke: #d55e00; stroke-width: 0.8"/>
    <path d="M 328.96487 192.173532 
L 328.96487 191.516368 
" clip-path="url(#p703cf9abb3)" style="fill: none; stroke: #d55e00; stroke-width: 0.8"/>
    <path d="M 336.862103 191.146765 
L 336.862103 190.316574 
" clip-path="url(#p703cf9abb3)" style="fill: none; stroke: #d55e00; stroke-width: 0.8"/>
    <path d="M 344.759336 190.537361 
L 344.759336 189.359704 
" clip-path="url(#p703cf9abb3)" style="fill: none; stroke: #d55e00; stroke-width: 0.8"/>
    <path d="M 352.656569 190.776315 
L 352.656569 188.934258 
" clip-path="url(#p703cf9abb3)" style="fill: none; stroke: #d55e00; stroke-width: 0.8"/>
    <path d="M 360.553802 190.747764 
L 360.553802 188.673151 
" clip-path="url(#p703cf9abb3)" style="fill: none; stroke: #d55e00; stroke-width: 0.8"/>
    <path d="M 368.451036 190.447859 
L 368.451036 188.377942 
" clip-path="url(#p703cf9abb3)" style="fill: none; stroke: #d55e00; stroke-width: 0.8"/>
    <path d="M 384.245502 189.163798 
L 384.245502 187.204612 
" clip-path="url(#p703cf9abb3)" style="fill: none; stroke: #d55e00; stroke-width: 0.8"/>
    <path d="M 415.834435 187.613068 
L 415.834435 185.37935 
" clip-path="url(#p703cf9abb3)" style="fill: none; stroke: #d55e00; stroke-width: 0.8"/>
    <path d="M 510.601233 183.308576 
L 510.601233 181.428117 
" clip-path="url(#p703cf9abb3)" style="fill: none; stroke: #d55e00; stroke-width: 0.8"/>
   </g>
   <g id="line2d_49">
    <defs>
     <path id="m8bc992422f" d="M 2.3 0 
L -2.3 -0 
" style="stroke: #d55e00"/>
    </defs>
    <g clip-path="url(#p703cf9abb3)">
     <use xlink:href="#m8bc992422f" x="321.067636" y="193.081481" style="fill: #d55e00; stroke: #d55e00"/>
     <use xlink:href="#m8bc992422f" x="328.96487" y="192.173532" style="fill: #d55e00; stroke: #d55e00"/>
     <use xlink:href="#m8bc992422f" x="336.862103" y="191.146765" style="fill: #d55e00; stroke: #d55e00"/>
     <use xlink:href="#m8bc992422f" x="344.759336" y="190.537361" style="fill: #d55e00; stroke: #d55e00"/>
     <use xlink:href="#m8bc992422f" x="352.656569" y="190.776315" style="fill: #d55e00; stroke: #d55e00"/>
     <use xlink:href="#m8bc992422f" x="360.553802" y="190.747764" style="fill: #d55e00; stroke: #d55e00"/>
     <use xlink:href="#m8bc992422f" x="368.451036" y="190.447859" style="fill: #d55e00; stroke: #d55e00"/>
     <use xlink:href="#m8bc992422f" x="384.245502" y="189.163798" style="fill: #d55e00; stroke: #d55e00"/>
     <use xlink:href="#m8bc992422f" x="415.834435" y="187.613068" style="fill: #d55e00; stroke: #d55e00"/>
     <use xlink:href="#m8bc992422f" x="510.601233" y="183.308576" style="fill: #d55e00; stroke: #d55e00"/>
    </g>
   </g>
   <g id="line2d_50">
    <g clip-path="url(#p703cf9abb3)">
     <use xlink:href="#m8bc992422f" x="321.067636" y="193.081481" style="fill: #d55e00; stroke: #d55e00"/>
     <use xlink:href="#m8bc992422f" x="328.96487" y="191.516368" style="fill: #d55e00; stroke: #d55e00"/>
     <use xlink:href="#m8bc992422f" x="336.862103" y="190.316574" style="fill: #d55e00; stroke: #d55e00"/>
     <use xlink:href="#m8bc992422f" x="344.759336" y="189.359704" style="fill: #d55e00; stroke: #d55e00"/>
     <use xlink:href="#m8bc992422f" x="352.656569" y="188.934258" style="fill: #d55e00; stroke: #d55e00"/>
     <use xlink:href="#m8bc992422f" x="360.553802" y="188.673151" style="fill: #d55e00; stroke: #d55e00"/>
     <use xlink:href="#m8bc992422f" x="368.451036" y="188.377942" style="fill: #d55e00; stroke: #d55e00"/>
     <use xlink:href="#m8bc992422f" x="384.245502" y="187.204612" style="fill: #d55e00; stroke: #d55e00"/>
     <use xlink:href="#m8bc992422f" x="415.834435" y="185.37935" style="fill: #d55e00; stroke: #d55e00"/>
     <use xlink:href="#m8bc992422f" x="510.601233" y="181.428117" style="fill: #d55e00; stroke: #d55e00"/>
    </g>
   </g>
   <g id="line2d_51">
    <path d="M 322.647083 192.548893 
L 326.955488 192.00514 
L 335.033746 191.239096 
L 348.497511 190.208782 
L 367.885331 188.962952 
L 394.274309 187.500294 
L 428.741546 185.824259 
L 471.287041 183.985656 
L 510.601233 182.442394 
L 510.601233 182.442394 
" clip-path="url(#p703cf9abb3)" style="fill: none; stroke-dasharray: 4.255,1.84; stroke-dashoffset: 0; stroke: #d55e00; stroke-opacity: 0.85; stroke-width: 1.15"/>
   </g>
   <g id="LineCollection_3">
    <path d="M 321.067636 193.081481 
L 321.067636 193.081481 
" clip-path="url(#p703cf9abb3)" style="fill: none; stroke: #009e73; stroke-width: 0.8"/>
    <path d="M 328.96487 195.405952 
L 328.96487 191.718481 
" clip-path="url(#p703cf9abb3)" style="fill: none; stroke: #009e73; stroke-width: 0.8"/>
    <path d="M 336.862103 194.487032 
L 336.862103 190.750888 
" clip-path="url(#p703cf9abb3)" style="fill: none; stroke: #009e73; stroke-width: 0.8"/>
    <path d="M 344.759336 182.92084 
L 344.759336 142.768129 
" clip-path="url(#p703cf9abb3)" style="fill: none; stroke: #009e73; stroke-width: 0.8"/>
    <path d="M 352.656569 129.2774 
L 352.656569 89.107464 
" clip-path="url(#p703cf9abb3)" style="fill: none; stroke: #009e73; stroke-width: 0.8"/>
    <path d="M 360.553802 121.580762 
L 360.553802 83.066021 
" clip-path="url(#p703cf9abb3)" style="fill: none; stroke: #009e73; stroke-width: 0.8"/>
    <path d="M 368.451036 106.71833 
L 368.451036 76.473403 
" clip-path="url(#p703cf9abb3)" style="fill: none; stroke: #009e73; stroke-width: 0.8"/>
    <path d="M 384.245502 106.342578 
L 384.245502 76.091955 
" clip-path="url(#p703cf9abb3)" style="fill: none; stroke: #009e73; stroke-width: 0.8"/>
    <path d="M 415.834435 97.01432 
L 415.834435 68.273097 
" clip-path="url(#p703cf9abb3)" style="fill: none; stroke: #009e73; stroke-width: 0.8"/>
    <path d="M 510.601233 94.448992 
L 510.601233 63.711438 
" clip-path="url(#p703cf9abb3)" style="fill: none; stroke: #009e73; stroke-width: 0.8"/>
   </g>
   <g id="line2d_52">
    <defs>
     <path id="md29906a3e8" d="M 2.3 0 
L -2.3 -0 
" style="stroke: #009e73"/>
    </defs>
    <g clip-path="url(#p703cf9abb3)">
     <use xlink:href="#md29906a3e8" x="321.067636" y="193.081481" style="fill: #009e73; stroke: #009e73"/>
     <use xlink:href="#md29906a3e8" x="328.96487" y="195.405952" style="fill: #009e73; stroke: #009e73"/>
     <use xlink:href="#md29906a3e8" x="336.862103" y="194.487032" style="fill: #009e73; stroke: #009e73"/>
     <use xlink:href="#md29906a3e8" x="344.759336" y="182.92084" style="fill: #009e73; stroke: #009e73"/>
     <use xlink:href="#md29906a3e8" x="352.656569" y="129.2774" style="fill: #009e73; stroke: #009e73"/>
     <use xlink:href="#md29906a3e8" x="360.553802" y="121.580762" style="fill: #009e73; stroke: #009e73"/>
     <use xlink:href="#md29906a3e8" x="368.451036" y="106.71833" style="fill: #009e73; stroke: #009e73"/>
     <use xlink:href="#md29906a3e8" x="384.245502" y="106.342578" style="fill: #009e73; stroke: #009e73"/>
     <use xlink:href="#md29906a3e8" x="415.834435" y="97.01432" style="fill: #009e73; stroke: #009e73"/>
     <use xlink:href="#md29906a3e8" x="510.601233" y="94.448992" style="fill: #009e73; stroke: #009e73"/>
    </g>
   </g>
   <g id="line2d_53">
    <g clip-path="url(#p703cf9abb3)">
     <use xlink:href="#md29906a3e8" x="321.067636" y="193.081481" style="fill: #009e73; stroke: #009e73"/>
     <use xlink:href="#md29906a3e8" x="328.96487" y="191.718481" style="fill: #009e73; stroke: #009e73"/>
     <use xlink:href="#md29906a3e8" x="336.862103" y="190.750888" style="fill: #009e73; stroke: #009e73"/>
     <use xlink:href="#md29906a3e8" x="344.759336" y="142.768129" style="fill: #009e73; stroke: #009e73"/>
     <use xlink:href="#md29906a3e8" x="352.656569" y="89.107464" style="fill: #009e73; stroke: #009e73"/>
     <use xlink:href="#md29906a3e8" x="360.553802" y="83.066021" style="fill: #009e73; stroke: #009e73"/>
     <use xlink:href="#md29906a3e8" x="368.451036" y="76.473403" style="fill: #009e73; stroke: #009e73"/>
     <use xlink:href="#md29906a3e8" x="384.245502" y="76.091955" style="fill: #009e73; stroke: #009e73"/>
     <use xlink:href="#md29906a3e8" x="415.834435" y="68.273097" style="fill: #009e73; stroke: #009e73"/>
     <use xlink:href="#md29906a3e8" x="510.601233" y="63.711438" style="fill: #009e73; stroke: #009e73"/>
    </g>
   </g>
   <g id="line2d_54">
    <path d="M 322.647083 193.081481 
L 330.186791 193.002869 
L 332.340993 192.763479 
L 333.956645 192.314905 
L 335.033746 191.785832 
L 336.110847 190.981629 
L 337.187948 189.803594 
L 338.26505 188.13746 
L 339.342151 185.860736 
L 340.419252 182.855866 
L 341.496353 179.02932 
L 342.573454 174.33442 
L 343.650555 168.792839 
L 345.266207 159.140004 
L 351.190263 121.52864 
L 352.805915 113.609341 
L 354.421567 107.155727 
L 355.498668 103.610386 
L 356.575769 100.602677 
L 357.65287 98.066717 
L 358.729971 95.937255 
L 359.807073 94.1535 
L 361.422724 92.00892 
L 363.038376 90.367075 
L 364.654028 89.106961 
L 366.269679 88.135887 
L 367.885331 87.383764 
L 370.039533 86.632477 
L 372.732286 85.97706 
L 375.96359 85.461107 
L 380.271994 85.046114 
L 386.196051 84.744308 
L 395.35141 84.543592 
L 412.585029 84.434734 
L 468.594288 84.399525 
L 510.601233 84.398252 
L 510.601233 84.398252 
" clip-path="url(#p703cf9abb3)" style="fill: none; stroke-dasharray: 7.36,1.84,1.15,1.84; stroke-dashoffset: 0; stroke: #009e73; stroke-opacity: 0.85; stroke-width: 1.15"/>
   </g>
   <g id="line2d_55">
    <path d="M 348.340477 197.905481 
L 348.340477 24.241481 
" clip-path="url(#p703cf9abb3)" style="fill: none; stroke-dasharray: 0.75,1.2375; stroke-dashoffset: 0; stroke: #009e73; stroke-opacity: 0.55; stroke-width: 0.75"/>
   </g>
   <g id="line2d_56">
    <path d="M 311.590957 112.681481 
L 520.077913 112.681481 
" clip-path="url(#p703cf9abb3)" style="fill: none; stroke-dasharray: 0.75,1.2375; stroke-dashoffset: 0; stroke: #777777; stroke-opacity: 0.8; stroke-width: 0.75"/>
   </g>
   <g id="line2d_57">
    <defs>
     <path id="m83ae3278df" d="M 0 2 
C 0.530406 2 1.03916 1.789267 1.414214 1.414214 
C 1.789267 1.03916 2 0.530406 2 0 
C 2 -0.530406 1.789267 -1.03916 1.414214 -1.414214 
C 1.03916 -1.789267 0.530406 -2 0 -2 
C -0.530406 -2 -1.03916 -1.789267 -1.414214 -1.414214 
C -1.789267 -1.03916 -2 -0.530406 -2 0 
C -2 0.530406 -1.789267 1.03916 -1.414214 1.414214 
C -1.03916 1.789267 -0.530406 2 0 2 
z
" style="stroke: #0072b2"/>
    </defs>
    <g clip-path="url(#p703cf9abb3)">
     <use xlink:href="#m83ae3278df" x="321.067636" y="193.081481" style="fill: #0072b2; stroke: #0072b2"/>
     <use xlink:href="#m83ae3278df" x="328.96487" y="188.449952" style="fill: #0072b2; stroke: #0072b2"/>
     <use xlink:href="#m83ae3278df" x="336.862103" y="180.776219" style="fill: #0072b2; stroke: #0072b2"/>
     <use xlink:href="#m83ae3278df" x="344.759336" y="137.741318" style="fill: #0072b2; stroke: #0072b2"/>
     <use xlink:href="#m83ae3278df" x="352.656569" y="55.924369" style="fill: #0072b2; stroke: #0072b2"/>
     <use xlink:href="#m83ae3278df" x="360.553802" y="48.823333" style="fill: #0072b2; stroke: #0072b2"/>
     <use xlink:href="#m83ae3278df" x="368.451036" y="35.278656" style="fill: #0072b2; stroke: #0072b2"/>
     <use xlink:href="#m83ae3278df" x="384.245502" y="35.057371" style="fill: #0072b2; stroke: #0072b2"/>
     <use xlink:href="#m83ae3278df" x="415.834435" y="34.909848" style="fill: #0072b2; stroke: #0072b2"/>
     <use xlink:href="#m83ae3278df" x="510.601233" y="34.252756" style="fill: #0072b2; stroke: #0072b2"/>
    </g>
   </g>
   <g id="line2d_58">
    <defs>
     <path id="m5e429ef88f" d="M -2 2 
L 2 2 
L 2 -2 
L -2 -2 
z
" style="stroke: #d55e00; stroke-linejoin: miter"/>
    </defs>
    <g clip-path="url(#p703cf9abb3)">
     <use xlink:href="#m5e429ef88f" x="321.067636" y="193.081481" style="fill: #d55e00; stroke: #d55e00; stroke-linejoin: miter"/>
     <use xlink:href="#m5e429ef88f" x="328.96487" y="191.856425" style="fill: #d55e00; stroke: #d55e00; stroke-linejoin: miter"/>
     <use xlink:href="#m5e429ef88f" x="336.862103" y="190.75033" style="fill: #d55e00; stroke: #d55e00; stroke-linejoin: miter"/>
     <use xlink:href="#m5e429ef88f" x="344.759336" y="189.952662" style="fill: #d55e00; stroke: #d55e00; stroke-linejoin: miter"/>
     <use xlink:href="#m5e429ef88f" x="352.656569" y="189.832243" style="fill: #d55e00; stroke: #d55e00; stroke-linejoin: miter"/>
     <use xlink:href="#m5e429ef88f" x="360.553802" y="189.635861" style="fill: #d55e00; stroke: #d55e00; stroke-linejoin: miter"/>
     <use xlink:href="#m5e429ef88f" x="368.451036" y="189.377434" style="fill: #d55e00; stroke: #d55e00; stroke-linejoin: miter"/>
     <use xlink:href="#m5e429ef88f" x="384.245502" y="188.142487" style="fill: #d55e00; stroke: #d55e00; stroke-linejoin: miter"/>
     <use xlink:href="#m5e429ef88f" x="415.834435" y="186.468407" style="fill: #d55e00; stroke: #d55e00; stroke-linejoin: miter"/>
     <use xlink:href="#m5e429ef88f" x="510.601233" y="182.317951" style="fill: #d55e00; stroke: #d55e00; stroke-linejoin: miter"/>
    </g>
   </g>
   <g id="line2d_59">
    <defs>
     <path id="m9bbfba8ead" d="M 0 -2 
L -2 2 
L 2 2 
z
" style="stroke: #009e73; stroke-linejoin: miter"/>
    </defs>
    <g clip-path="url(#p703cf9abb3)">
     <use xlink:href="#m9bbfba8ead" x="321.067636" y="193.081481" style="fill: #009e73; stroke: #009e73; stroke-linejoin: miter"/>
     <use xlink:href="#m9bbfba8ead" x="328.96487" y="193.050197" style="fill: #009e73; stroke: #009e73; stroke-linejoin: miter"/>
     <use xlink:href="#m9bbfba8ead" x="336.862103" y="192.195275" style="fill: #009e73; stroke: #009e73; stroke-linejoin: miter"/>
     <use xlink:href="#m9bbfba8ead" x="344.759336" y="164.568088" style="fill: #009e73; stroke: #009e73; stroke-linejoin: miter"/>
     <use xlink:href="#m9bbfba8ead" x="352.656569" y="108.479594" style="fill: #009e73; stroke: #009e73; stroke-linejoin: miter"/>
     <use xlink:href="#m9bbfba8ead" x="360.553802" y="100.563423" style="fill: #009e73; stroke: #009e73; stroke-linejoin: miter"/>
     <use xlink:href="#m9bbfba8ead" x="368.451036" y="90.32541" style="fill: #009e73; stroke: #009e73; stroke-linejoin: miter"/>
     <use xlink:href="#m9bbfba8ead" x="384.245502" y="89.949345" style="fill: #009e73; stroke: #009e73; stroke-linejoin: miter"/>
     <use xlink:href="#m9bbfba8ead" x="415.834435" y="80.835117" style="fill: #009e73; stroke: #009e73; stroke-linejoin: miter"/>
     <use xlink:href="#m9bbfba8ead" x="510.601233" y="76.436991" style="fill: #009e73; stroke: #009e73; stroke-linejoin: miter"/>
    </g>
   </g>
   <g id="patch_6">
    <path d="M 311.590957 197.905481 
L 311.590957 24.241481 
" style="fill: none; stroke: #000000; stroke-width: 0.8; stroke-linejoin: miter; stroke-linecap: square"/>
   </g>
   <g id="patch_7">
    <path d="M 311.590957 197.905481 
L 520.077913 197.905481 
" style="fill: none; stroke: #000000; stroke-width: 0.8; stroke-linejoin: miter; stroke-linecap: square"/>
   </g>
   <g id="text_35">
    <text style="font-weight: 700; font-size: 11px; font-family: 'DejaVu Sans'; text-anchor: start" x="278.233043" y="15.558281" transform="rotate(-0 278.233043 15.558281)">B</text>
   </g>
  </g>
 </g>
 <defs>
  <clipPath id="p0fc0fe6254">
   <rect x="40.557913" y="24.241481" width="208.486957" height="173.664"/>
  </clipPath>
  <clipPath id="p703cf9abb3">
   <rect x="311.590957" y="24.241481" width="208.486957" height="173.664"/>
  </clipPath>
 </defs>
</svg>
